<mxfile host="app.diagrams.net" modified="2023-11-01T18:29:10.717Z" agent="Mozilla/5.0 (Windows NT 10.0; Win64; x64) AppleWebKit/537.36 (KHTML, like Gecko) Chrome/118.0.0.0 Safari/537.36" version="22.0.8" etag="mM88yw6owCP-8eYuKf0s" type="github">
  <diagram name="第 1 页" id="4EmPoXD_2-LQlN9BmV32">
    <mxGraphModel>
      <root>
        <mxCell id="0" />
        <mxCell id="1" parent="0" />
      </root>
    </mxGraphModel>
  </diagram>
</mxfile>
